<svg xmlns="http://www.w3.org/2000/svg" width="500" height="500" version="1.0" viewBox="0 0 375 375"><defs><clipPath id="a"><path d="M43.898 117.945H328V159H43.898zm0 0"/></clipPath><clipPath id="b"><path d="M235 153h96v22.695h-96zm0 0"/></clipPath></defs><g clip-path="url(#a)"><path d="M304.703 146.95a93.435 93.435 0 0 1-10.484-2.614 133.51 133.51 0 0 1-10.215-3.695 277.369 277.369 0 0 1-10.059-4.36l-10.129-4.64c-3.421-1.555-6.902-3.086-10.488-4.536-.898-.355-1.793-.722-2.71-1.066l-1.368-.52-1.383-.507c-.918-.34-1.867-.653-2.797-.98-.468-.16-.945-.31-1.422-.466-.472-.152-.941-.312-1.425-.457-.961-.289-1.918-.586-2.899-.851-.488-.137-.969-.278-1.46-.406l-1.481-.372c-.988-.242-1.969-.5-2.973-.703l-1.496-.324c-.5-.105-.996-.219-1.504-.305l-3.023-.543-3.047-.453c-.254-.035-.508-.078-.762-.109l-2.297-.27c-.511-.054-1.02-.128-1.531-.171l-1.535-.133c-4.098-.36-8.211-.524-12.305-.485-4.094.04-8.172.243-12.207.61-8.078.722-15.98 2.094-23.66 3.863a216.85 216.85 0 0 0-22.36 6.531 232.815 232.815 0 0 0-10.667 4.028 245.099 245.099 0 0 0-10.325 4.453c7.243-2.426 14.543-4.715 21.977-6.684a251.092 251.092 0 0 1 22.57-4.984 196.4 196.4 0 0 1 11.48-1.614c1.919-.226 3.845-.394 5.77-.558l2.887-.2c.96-.062 1.926-.093 2.89-.144 3.848-.156 7.696-.195 11.52-.062l2.863.132c.95.055 1.899.133 2.848.2l.711.054.707.067 1.414.136c.473.051.945.086 1.414.145l1.406.176 1.403.176c.469.054.93.14 1.398.207l1.39.218.696.106c.23.039.457.086.688.125l2.75.52 2.718.593c.454.094.895.215 1.344.328l1.34.332c.898.211 1.77.477 2.652.727l1.317.375c.437.129.867.273 1.3.41.872.266 1.727.566 2.586.855 6.868 2.38 13.43 5.418 20.016 8.61 6.586 3.191 13.211 6.558 20.324 9.594 1.36.578 2.739 1.144 4.137 1.695-4.21.324-8.437.566-12.676.746l-4.02.148-4.027.098c-1.343.04-2.691.04-4.035.059l-2.015.02c-.672.007-1.348 0-2.02 0-5.383.023-10.781-.09-16.18-.25a609.279 609.279 0 0 1-16.21-.708c-5.41-.3-10.82-.648-16.239-1.047-10.832-.777-21.68-1.718-32.558-2.632-10.88-.918-21.79-1.836-32.743-2.575l-4.109-.273c-1.367-.094-2.742-.18-4.113-.262-2.746-.16-5.5-.3-8.258-.426-1.379-.066-2.762-.113-4.145-.172l-4.148-.128c-1.387-.024-2.77-.055-4.156-.07l-2.082-.012a92.437 92.437 0 0 0-2.082-.004c-1.387.007-2.774.004-4.164.039l-2.086.039c-.692.015-1.387.043-2.082.07l-2.082.078-2.082.11c-1.387.062-2.774.171-4.16.27-5.54.398-11.047 1.07-16.465 2.023-5.415.964-10.723 2.242-15.817 3.867-5.094 1.625-9.988 3.582-14.504 5.922 9.762-3.762 20.293-6.118 30.965-7.282 10.691-1.191 21.523-1.214 32.305-.726.672.027 1.347.062 2.023.105l2.02.114c1.351.078 2.699.183 4.047.265l4.043.3c1.347.118 2.695.22 4.043.345 2.695.238 5.394.492 8.093.77 2.7.26 5.403.546 8.102.827 10.805 1.153 21.61 2.395 32.45 3.602 21.675 2.41 43.534 4.676 65.702 5.535 11.078.434 22.23.492 33.383.031 5.578-.246 11.156-.59 16.715-1.113a306.06 306.06 0 0 0 16.601-2.031l22.977-3.453zm0 0"/></g><g clip-path="url(#b)"><path fill="#ff1616" d="M243.734 170.488c8.563 1.871 17.246 3.254 25.973 4.055 10.95 1.008 22.102 1.148 32.984-.61 5.29-.855 10.532-2.18 15.489-4.234 4.07-1.687 11.765-4.426 12.5-9.488.261-1.793.328-4.508-1.926-5.91-2.902-1.801-6.797.015-9.516 1.05-3.25 1.235-6.449 2.551-9.953 3.512-4.379 1.2-8.91 2.196-13.484 3.082-5.156 1-10.41 1.899-15.711 2.57 2.617.434 6.965 1.024 9.316 1.317 2.813.348 5.64.656 8.485.902 2.988.262 6.078.453 9.168.555-13.758 2.766-37.192 5.191-71.266 1.274 2.68.687 5.355 1.359 7.941 1.925zm0 0"/></g><path d="M103.941 201.531H87.656c-.281 0-.984.105-.984 1.234v2.786c0 1.093.703 1.199.984 1.199h15.367c.883 0 1.516.246 1.867.773.391.531.567 1.375.567 2.54 0 1.163-.176 2.007-.567 2.534-.351.532-.984.778-1.867.778H87.656c-.281 0-.984.105-.984 1.199v14.8c0 1.094.703 1.235.984 1.235h3.246c.281 0 .985-.14.985-1.234V218.59l12.054-.036c2.395 0 4.121-.738 5.18-2.218 1.059-1.48 1.55-3.594 1.55-6.38v.212c0-2.82-.491-4.934-1.55-6.38-1.059-1.515-2.785-2.257-5.18-2.257zm29.629 0h-16.286c-.281 0-.984.105-.984 1.234v2.786c0 1.093.703 1.199.984 1.199h15.367c.883 0 1.516.246 1.867.773.391.531.567 1.375.567 2.54 0 1.163-.176 2.007-.567 2.534-.351.532-.984.778-1.867.778h-15.367c-.281 0-.984.105-.984 1.199v14.8c0 1.094.703 1.235.984 1.235h3.246c.281 0 .985-.14.985-1.234V218.59l12.054-.036c2.395 0 4.121-.738 5.18-2.218 1.059-1.48 1.55-3.594 1.55-6.38v.212c0-2.82-.491-4.934-1.55-6.38-1.059-1.515-2.785-2.257-5.18-2.257zm49.356 3.281c-.07-.18-.14-.39-.211-.531-.566-1.832-2.258-3.137-4.195-3.137-.88 0-1.727.246-2.43.742-.215.106-.39.247-.531.352-.528.457-1.055 1.305-1.551 2.574l-9.832 24.422c-.106.317-.14.637-.07.848.035.21.21.527.773.527h3.879c.457 0 .808-.281.984-.738l2.012-5.043h7.719c.386 0 .738-.176.914-.492.21-.282.246-.668.14-1.024l-1.265-3.136c-.18-.422-.567-.704-1.024-.704h-4.37l4.511-11.418a.435.435 0 0 1 .07-.105h.14l.036.07 8.742 21.817c.176.492.528.773 1.02.773h3.773c.563 0 .703-.351.774-.527.07-.211.035-.531-.106-.848zm40.056-3.281h-3.242c-.316 0-.984.105-.984 1.2v17.374c0 1.059-.07 1.977-.176 2.645-.105.668-.32 1.199-.566 1.586a2.403 2.403 0 0 1-1.055.777 6.458 6.458 0 0 1-1.836.246h-7.613a6.424 6.424 0 0 1-1.832-.246 2.403 2.403 0 0 1-1.055-.777c-.25-.387-.461-.918-.602-1.586-.105-.668-.175-1.586-.175-2.645V202.73c0-1.094-.668-1.199-.985-1.199h-3.21c-.317 0-1.02.105-1.02 1.2v16.812c0 1.972.14 3.664.457 5.039.316 1.41.847 2.574 1.55 3.453.672.918 1.622 1.55 2.715 1.976 1.094.387 2.43.563 3.98.563h7.93c1.551 0 2.891-.176 3.985-.563 1.129-.425 2.043-1.058 2.75-1.976.703-.879 1.2-2.043 1.516-3.453.316-1.375.457-3.067.457-5.04V202.73c0-1.094-.668-1.199-.989-1.199zm30.968 0h-23.333c-.316 0-1.02.105-1.02 1.2v2.75c0 1.163.704 1.269 1.02 1.269h9.059v22.625c0 1.093.707 1.199.988 1.199h3.242c.317 0 .988-.106.988-1.2V206.75h9.055c.32 0 1.024-.106 1.024-1.27v-2.75c0-1.094-.704-1.199-1.024-1.199zm30.65 2.574c-.704-.883-1.622-1.55-2.75-1.972-1.09-.387-2.43-.602-3.981-.602h-8.602c-1.55 0-2.851.215-3.945.602a6.268 6.268 0 0 0-2.75 1.972c-.668.883-1.2 2.043-1.515 3.453-.317 1.375-.458 3.032-.458 5.004v6.98c0 1.973.141 3.665.458 5.04.316 1.41.847 2.574 1.515 3.453a5.795 5.795 0 0 0 2.75 1.976c1.059.387 2.395.598 3.945.598h8.602c1.55 0 2.89-.21 3.98-.598a5.952 5.952 0 0 0 2.75-1.941c.708-.914 1.2-2.078 1.516-3.488.281-1.375.457-3.067.457-5.04v-6.98c0-1.937-.176-3.629-.457-5.004-.316-1.41-.808-2.57-1.516-3.453zm-3.278 7.86v8.21c0 1.024-.035 1.907-.176 2.61-.105.633-.316 1.2-.597 1.55-.25.387-.602.633-1.059.778-.457.176-1.058.246-1.797.246h-8.25c-.738 0-1.336-.07-1.797-.246-.457-.145-.808-.39-1.054-.777-.285-.352-.461-.918-.602-1.551a17.866 17.866 0 0 1-.176-2.61v-8.21c0-1.024.07-1.903.176-2.61.14-.668.317-1.195.602-1.586.246-.351.597-.597 1.054-.773a6.16 6.16 0 0 1 1.797-.246h8.25c.739 0 1.34.105 1.797.246.457.176.809.422 1.059.773.281.39.492.918.597 1.586.141.707.176 1.586.176 2.61zm0 0"/><path fill="#ff1616" d="M107.487 246.45h1.183a.27.27 0 0 0 .262-.266v-1.074a.65.65 0 0 0-.192-.46l-1.554-1.587a.686.686 0 0 0-.528-.21h-5.027c-.21 0-.352.05-.512.21l-1.586 1.586c-.105.106-.214.281-.214.461v4.48c0 .176.109.352.214.458l1.586 1.585c.16.16.301.215.512.215h5.027c.23 0 .387-.07.528-.215l1.554-1.585a.648.648 0 0 0 .192-.457v-1.079a.27.27 0 0 0-.262-.265h-1.183a.274.274 0 0 0-.266.265v.618c0 .125-.016.21-.121.3l-.567.528c-.086.09-.156.144-.28.144h-4.13c-.086 0-.156-.035-.261-.144l-.567-.528a.395.395 0 0 1-.121-.3v-3.563c0-.125.035-.21.121-.3l.567-.528c.105-.106.175-.14.261-.14h4.13c.124 0 .194.05.28.14l.567.527c.105.09.12.176.12.301v.617c0 .14.126.266.267.266zm15.451-1.711-1.555-1.59a.686.686 0 0 0-.527-.21h-5.063c-.23 0-.386.07-.527.21l-1.555 1.59a.645.645 0 0 0-.195.457v6.297c0 .14.125.265.266.265h1.183a.27.27 0 0 0 .262-.265v-2.63h6.191v2.63c0 .14.125.265.266.265h1.184a.27.27 0 0 0 .261-.265v-6.297a.641.641 0 0 0-.191-.457zm-7.71 2.594v-1.676c0-.125.038-.215.124-.3l.566-.532.106-.086c.035-.035.086-.055.176-.055h4.25c.07 0 .125.02.175.055l.106.086.566.531a.39.39 0 0 1 .121.3v1.677zm22.154-2.649-1.586-1.55a.645.645 0 0 0-.461-.196h-7.356a.274.274 0 0 0-.265.266v8.289c0 .14.125.265.265.265h1.22c.14 0 .265-.125.265-.265v-1.676h4.777l1.094 1.781c.07.106.16.16.265.16h1.325c.21 0 .316-.195.21-.37l-1.199-1.922 1.446-1.446c.105-.105.21-.285.21-.46v-2.344a.697.697 0 0 0-.21-.532zm-7.918-.035h5.308c.121 0 .211.035.297.125l.531.563.086.105c.04.055.055.11.055.18v1.48a.385.385 0 0 1-.125.301l-.562.527c-.106.106-.176.141-.266.141h-5.324zm20.826 1.606c0 .23.074.39.215.53l1.234 1.2a.713.713 0 0 0 .457.191h5.239c.125 0 .21.036.3.125l.266.317a.3.3 0 0 1 .05.176v.425a.4.4 0 0 1-.12.301l-.39.352c-.106.086-.177.14-.263.14h-6.422a.274.274 0 0 0-.265.266v1.215c0 .14.125.265.265.265h6.915c.21 0 .351-.054.511-.21l1.41-1.41c.106-.11.211-.286.211-.462v-1.464c0-.227-.07-.403-.21-.528l-1.06-1.023a.717.717 0 0 0-.456-.195h-5.414a.39.39 0 0 1-.301-.122l-.266-.32a.292.292 0 0 1-.05-.176v-.37a.39.39 0 0 1 .12-.298l.391-.355c.106-.086.176-.14.262-.14h6.246a.27.27 0 0 0 .266-.262v-1.22a.274.274 0 0 0-.266-.265h-6.738a.654.654 0 0 0-.512.211l-1.41 1.414c-.106.106-.215.281-.215.457zm23.55-3.317h-1.325a.274.274 0 0 0-.266.266v3.156h-5.906v-3.156a.274.274 0 0 0-.266-.266h-1.324a.274.274 0 0 0-.265.266v8.289c0 .14.125.265.265.265h1.324a.274.274 0 0 0 .266-.265v-3.387h5.906v3.387c0 .14.125.265.266.265h1.324a.27.27 0 0 0 .262-.265v-8.29a.27.27 0 0 0-.262-.265zm4.845 6.562c0 .176.074.337.196.458l1.554 1.59c.14.14.297.21.528.21h5.062c.23 0 .387-.07.527-.21l1.555-1.59a.641.641 0 0 0 .191-.457v-4.305a.641.641 0 0 0-.19-.457l-1.556-1.59a.686.686 0 0 0-.527-.21h-5.062a.69.69 0 0 0-.528.21l-1.554 1.59a.645.645 0 0 0-.196.457zm1.711-.456v-3.387c0-.125.04-.215.125-.3l.567-.532.105-.086c.035-.035.086-.055.176-.055h4.25c.07 0 .125.02.176.055l.105.086.566.531a.39.39 0 0 1 .122.3v3.388a.39.39 0 0 1-.122.297l-.566.53-.105.087a.294.294 0 0 1-.176.054h-4.25c-.09 0-.14-.02-.176-.054l-.105-.086-.567-.531a.39.39 0 0 1-.125-.297zm29.897-6.106h-1.18a.274.274 0 0 0-.265.266v5.625c0 .125-.036.23-.125.3l-.88.829a.306.306 0 0 1-.179.054h-3.719a.294.294 0 0 1-.175-.054l-.848-.793c-.09-.07-.125-.176-.125-.301v-5.66a.271.271 0 0 0-.266-.266h-1.18a.274.274 0 0 0-.265.266v5.66c0 .125-.035.23-.121.3l-.848.794a.303.303 0 0 1-.176.054h-4.144a.306.306 0 0 1-.18-.054l-.898-.844a.398.398 0 0 1-.125-.3v-5.61a.27.27 0 0 0-.262-.266h-1.184a.274.274 0 0 0-.265.266v6.12c0 .177.09.337.195.458l1.73 1.766c.141.14.297.21.528.21h5.012c.226 0 .402-.07.527-.21l1.074-1.094 1.059 1.094c.125.14.3.21.531.21h4.566c.23 0 .391-.07.532-.21l1.726-1.766a.717.717 0 0 0 .196-.457v-6.121a.274.274 0 0 0-.266-.266zm14.513 1.746-1.586-1.55a.645.645 0 0 0-.46-.196h-7.356a.274.274 0 0 0-.266.266v8.289c0 .14.125.265.266.265h1.219c.14 0 .265-.125.265-.265v-1.676h4.778l1.093 1.781c.07.106.16.16.266.16h1.324c.211 0 .317-.195.211-.37l-1.199-1.922 1.445-1.446a.703.703 0 0 0 .211-.46v-2.344a.697.697 0 0 0-.21-.532zm-7.918-.035h5.309c.121 0 .21.035.297.125l.531.563.086.105c.04.055.055.11.055.18v1.48a.385.385 0 0 1-.125.301l-.563.527c-.105.106-.176.141-.265.141h-5.325zM229.6 249.5c0 .176.075.337.196.458l1.554 1.59c.141.14.297.21.528.21h5.062a.69.69 0 0 0 .528-.21l1.554-1.59a.641.641 0 0 0 .192-.457v-4.305a.641.641 0 0 0-.192-.457l-1.554-1.59a.686.686 0 0 0-.528-.21h-5.062a.69.69 0 0 0-.528.21l-1.554 1.59a.645.645 0 0 0-.196.457zm1.711-.456v-3.387c0-.125.04-.215.125-.3l.567-.532.105-.086c.035-.035.086-.055.176-.055h4.25c.07 0 .125.02.176.055l.105.086.567.531a.39.39 0 0 1 .12.3v3.388c0 .12-.034.21-.12.297l-.567.53-.105.087a.294.294 0 0 1-.176.054h-4.25c-.09 0-.14-.02-.176-.054l-.105-.086-.567-.531a.39.39 0 0 1-.125-.297zm12.487.456c0 .176.074.337.195.458l1.555 1.59c.14.14.297.21.527.21h5.063c.23 0 .387-.07.527-.21l1.555-1.59a.641.641 0 0 0 .191-.457v-4.305a.641.641 0 0 0-.191-.457l-1.555-1.59a.686.686 0 0 0-.527-.21h-5.063c-.23 0-.386.07-.527.21l-1.555 1.59a.645.645 0 0 0-.195.457zm1.71-.456v-3.387a.39.39 0 0 1 .126-.3l.566-.532.106-.086c.035-.035.086-.055.176-.055h4.25c.07 0 .125.02.175.055l.106.086.566.531a.39.39 0 0 1 .121.3v3.388c0 .12-.035.21-.12.297l-.567.53-.106.087a.294.294 0 0 1-.175.054h-4.25c-.09 0-.141-.02-.176-.054l-.106-.086-.566-.531a.39.39 0 0 1-.125-.297zm29.968-4.129-1.727-1.766a.694.694 0 0 0-.53-.21h-4.567c-.23 0-.406.07-.531.21l-1.059 1.094-1.074-1.094c-.125-.14-.301-.21-.528-.21h-5.011a.69.69 0 0 0-.528.21l-1.73 1.766c-.106.125-.195.281-.195.457v6.12c0 .141.125.266.265.266h1.184a.27.27 0 0 0 .261-.265v-5.574c0-.121.04-.211.125-.297l.899-.883a.306.306 0 0 1 .18-.055h4.144c.07 0 .121.02.176.055l.848.793c.086.07.12.176.12.3v5.66c0 .141.126.266.266.266h1.18a.271.271 0 0 0 .266-.265v-5.66c0-.125.035-.23.125-.301l.847-.793a.294.294 0 0 1 .176-.055h3.719a.31.31 0 0 1 .18.055l.878.863c.09.07.125.176.125.301v5.59c0 .14.125.265.266.265h1.18c.14 0 .265-.125.265-.265v-6.121c0-.176-.09-.332-.195-.457zm0 0"/></svg>